<?xml version="1.0" encoding="utf-8" ?>
<svg baseProfile="tiny" height="1024" version="1.2" width="1024" xmlns="http://www.w3.org/2000/svg" xmlns:ev="http://www.w3.org/2001/xml-events" xmlns:xlink="http://www.w3.org/1999/xlink"><defs /><path d="M 425,385 L 425,387 L 426,388 L 426,390 L 427,391 L 427,393 L 428,394 L 428,396 L 429,397 L 429,399 L 430,400 L 430,402 L 431,403 L 431,405 L 432,406 L 432,408 L 433,409 L 433,411 L 434,412 L 434,413 L 435,414 L 435,417 L 436,418 L 436,420 L 437,421 L 437,423 L 438,424 L 438,426 L 439,427 L 439,429 L 440,430 L 440,432 L 441,433 L 441,435 L 442,436 L 442,438 L 443,439 L 443,441 L 444,442 L 444,444 L 445,445 L 445,447 L 446,448 L 446,450 L 447,451 L 447,453 L 448,454 L 448,456 L 449,457 L 449,459 L 450,460 L 450,462 L 451,463 L 451,465 L 452,466 L 452,468 L 453,469 L 453,471 L 454,472 L 454,474 L 455,475 L 455,477 L 456,478 L 456,480 L 457,481 L 457,483 L 458,484 L 458,486 L 459,487 L 459,489 L 460,490 L 460,492 L 461,493 L 461,495 L 462,496 L 462,498 L 463,499 L 463,501 L 464,502 L 464,504 L 465,505 L 465,507 L 466,508 L 466,510 L 467,511 L 467,513 L 468,514 L 468,516 L 469,517 L 469,519 L 470,520 L 470,522 L 471,523 L 471,525 L 472,526 L 472,528 L 473,529 L 473,531 L 474,532 L 474,534 L 475,535 L 475,537 L 476,538 L 476,540 L 477,541 L 477,543 L 476,544 L 476,547 L 475,548 L 475,551 L 474,552 L 474,555 L 473,556 L 473,558 L 472,559 L 472,562 L 471,563 L 471,566 L 470,567 L 470,570 L 469,571 L 469,573 L 468,574 L 468,577 L 467,578 L 467,581 L 466,582 L 466,584 L 465,585 L 465,588 L 464,589 L 464,592 L 463,593 L 463,596 L 462,597 L 462,599 L 461,600 L 461,603 L 460,604 L 460,607 L 459,608 L 459,611 L 458,612 L 458,614 L 457,615 L 457,618 L 456,619 L 456,622 L 455,623 L 455,625 L 454,626 L 454,629 L 453,630 L 520,630 L 520,627 L 521,626 L 521,623 L 522,622 L 522,619 L 523,618 L 523,616 L 524,615 L 524,612 L 525,611 L 525,608 L 526,607 L 526,604 L 527,603 L 527,600 L 528,599 L 528,597 L 529,596 L 529,593 L 530,592 L 530,589 L 531,588 L 531,586 L 532,585 L 532,582 L 533,581 L 533,578 L 534,577 L 534,574 L 535,573 L 535,570 L 536,569 L 536,567 L 537,566 L 537,563 L 538,562 L 538,559 L 539,558 L 539,555 L 540,554 L 540,552 L 541,551 L 541,548 L 542,547 L 542,544 L 543,543 L 543,541 L 547,537 L 547,536 L 551,532 L 551,531 L 555,527 L 555,526 L 559,522 L 559,521 L 563,517 L 563,516 L 568,511 L 568,510 L 572,506 L 572,505 L 577,500 L 577,499 L 581,495 L 581,494 L 585,490 L 585,489 L 590,484 L 590,483 L 594,479 L 594,478 L 598,474 L 598,473 L 602,469 L 602,468 L 606,464 L 606,463 L 610,459 L 610,458 L 614,454 L 614,453 L 619,448 L 619,447 L 623,443 L 623,442 L 628,437 L 628,436 L 632,432 L 632,431 L 636,427 L 636,426 L 640,422 L 640,421 L 644,417 L 644,416 L 649,411 L 649,410 L 653,406 L 653,405 L 658,400 L 658,399 L 662,395 L 662,394 L 667,389 L 667,388 L 669,386 L 669,385 L 594,385 L 593,386 L 593,387 L 590,390 L 590,391 L 586,395 L 586,396 L 584,398 L 584,399 L 580,403 L 580,404 L 576,408 L 576,409 L 573,412 L 573,413 L 570,416 L 570,417 L 567,420 L 567,421 L 563,425 L 563,426 L 560,429 L 560,430 L 557,433 L 557,434 L 554,437 L 554,438 L 550,442 L 550,443 L 547,446 L 547,447 L 544,450 L 544,451 L 541,454 L 541,455 L 537,459 L 537,460 L 534,463 L 534,464 L 531,467 L 531,468 L 528,471 L 528,472 L 525,475 L 523,473 L 523,471 L 522,470 L 522,468 L 521,467 L 521,465 L 520,464 L 520,462 L 519,461 L 519,460 L 518,459 L 518,457 L 517,456 L 517,454 L 516,453 L 516,451 L 515,450 L 515,448 L 514,447 L 514,445 L 513,444 L 513,442 L 512,441 L 512,439 L 511,438 L 511,436 L 510,435 L 510,434 L 509,433 L 509,430 L 508,429 L 508,428 L 507,427 L 507,425 L 506,424 L 506,422 L 505,421 L 505,419 L 504,418 L 504,416 L 503,415 L 503,413 L 502,412 L 502,410 L 501,409 L 501,407 L 500,406 L 500,404 L 499,403 L 499,402 L 498,401 L 498,399 L 497,398 L 497,396 L 496,395 L 496,393 L 495,392 L 495,390 L 494,389 L 494,387 L 493,386 L 493,385 Z" fill="black" fill-rule="evenodd" /><path d="M 754,381 L 753,382 L 745,382 L 744,383 L 739,383 L 738,384 L 734,384 L 733,385 L 730,385 L 729,386 L 727,386 L 726,387 L 723,387 L 722,388 L 720,388 L 719,389 L 717,389 L 716,390 L 715,390 L 714,391 L 712,391 L 711,392 L 709,392 L 708,393 L 707,393 L 706,394 L 705,394 L 704,395 L 703,395 L 702,396 L 701,396 L 700,397 L 699,397 L 698,398 L 697,398 L 696,399 L 695,399 L 693,401 L 692,401 L 691,402 L 690,402 L 688,404 L 687,404 L 685,406 L 684,406 L 682,408 L 681,408 L 678,411 L 677,411 L 673,415 L 672,415 L 653,434 L 653,435 L 648,440 L 648,441 L 645,444 L 645,445 L 643,447 L 643,448 L 641,450 L 641,451 L 639,453 L 639,454 L 638,455 L 638,456 L 636,458 L 636,459 L 635,460 L 635,461 L 634,462 L 634,463 L 632,465 L 632,466 L 631,467 L 631,468 L 630,469 L 630,470 L 629,471 L 629,472 L 628,473 L 628,475 L 627,476 L 627,477 L 626,478 L 626,480 L 625,481 L 625,482 L 624,483 L 624,485 L 623,486 L 623,487 L 622,488 L 622,490 L 621,491 L 621,494 L 620,495 L 620,497 L 619,498 L 619,501 L 618,502 L 618,505 L 617,506 L 617,510 L 616,511 L 616,516 L 615,517 L 615,524 L 614,525 L 614,551 L 615,552 L 615,558 L 616,559 L 616,563 L 617,564 L 617,567 L 618,568 L 618,571 L 619,572 L 619,574 L 620,575 L 620,576 L 621,577 L 621,579 L 622,580 L 622,581 L 623,582 L 623,583 L 624,584 L 624,585 L 625,586 L 625,587 L 626,588 L 626,589 L 627,590 L 627,591 L 629,593 L 629,594 L 631,596 L 631,597 L 634,600 L 634,601 L 645,612 L 646,612 L 650,616 L 651,616 L 653,618 L 654,618 L 656,620 L 657,620 L 658,621 L 659,621 L 660,622 L 661,622 L 663,624 L 665,624 L 666,625 L 667,625 L 668,626 L 669,626 L 670,627 L 672,627 L 673,628 L 674,628 L 675,629 L 677,629 L 678,630 L 680,630 L 681,631 L 684,631 L 685,632 L 688,632 L 689,633 L 693,633 L 694,634 L 700,634 L 701,635 L 712,635 L 713,636 L 730,636 L 731,635 L 741,635 L 742,634 L 748,634 L 749,633 L 754,633 L 755,632 L 759,632 L 760,631 L 763,631 L 764,630 L 767,630 L 768,629 L 770,629 L 771,628 L 773,628 L 774,627 L 776,627 L 777,626 L 779,626 L 780,625 L 782,625 L 783,624 L 784,624 L 785,623 L 786,623 L 787,622 L 789,622 L 790,621 L 791,621 L 792,620 L 793,620 L 794,619 L 795,619 L 796,618 L 797,618 L 798,617 L 799,617 L 801,615 L 802,615 L 803,614 L 804,614 L 805,613 L 806,613 L 808,611 L 809,611 L 811,609 L 812,609 L 815,606 L 816,606 L 819,603 L 820,603 L 829,594 L 830,594 L 834,590 L 834,589 L 841,582 L 841,581 L 845,577 L 845,576 L 848,573 L 848,572 L 850,570 L 850,569 L 852,567 L 852,566 L 854,564 L 854,563 L 855,562 L 855,561 L 856,560 L 856,559 L 858,557 L 858,556 L 859,555 L 859,554 L 860,553 L 860,552 L 861,551 L 861,550 L 862,549 L 862,548 L 863,547 L 863,545 L 864,544 L 864,543 L 865,542 L 865,541 L 866,540 L 866,538 L 867,537 L 867,535 L 868,534 L 868,532 L 869,531 L 869,529 L 870,528 L 870,526 L 871,525 L 871,522 L 872,521 L 872,519 L 873,518 L 873,514 L 874,513 L 874,509 L 875,508 L 875,503 L 876,502 L 876,495 L 877,494 L 877,467 L 876,466 L 876,459 L 875,458 L 875,454 L 874,453 L 874,450 L 873,449 L 873,447 L 872,446 L 872,444 L 871,443 L 871,441 L 870,440 L 870,439 L 869,438 L 869,436 L 868,435 L 868,434 L 867,433 L 867,432 L 865,430 L 865,429 L 864,428 L 864,427 L 862,425 L 862,424 L 860,422 L 860,421 L 857,418 L 857,417 L 843,403 L 842,403 L 839,400 L 838,400 L 836,398 L 835,398 L 833,396 L 832,396 L 831,395 L 830,395 L 829,394 L 828,394 L 827,393 L 826,393 L 825,392 L 824,392 L 823,391 L 822,391 L 821,390 L 819,390 L 818,389 L 817,389 L 816,388 L 814,388 L 813,387 L 811,387 L 810,386 L 808,386 L 807,385 L 804,385 L 803,384 L 799,384 L 798,383 L 794,383 L 793,382 L 786,382 L 785,381 Z M 750,440 L 751,439 L 771,439 L 772,440 L 776,440 L 777,441 L 780,441 L 781,442 L 783,442 L 784,443 L 785,443 L 786,444 L 787,444 L 788,445 L 789,445 L 792,448 L 793,448 L 800,455 L 800,456 L 802,458 L 802,459 L 804,461 L 804,462 L 805,463 L 805,464 L 806,465 L 806,467 L 807,468 L 807,470 L 808,471 L 808,475 L 809,476 L 809,499 L 808,500 L 808,505 L 807,506 L 807,510 L 806,511 L 806,514 L 805,515 L 805,517 L 804,518 L 804,520 L 803,521 L 803,523 L 802,524 L 802,526 L 801,527 L 801,528 L 800,529 L 800,530 L 799,531 L 799,532 L 798,533 L 798,534 L 797,535 L 797,536 L 796,537 L 796,538 L 795,539 L 795,540 L 793,542 L 793,543 L 791,545 L 791,546 L 788,549 L 788,550 L 776,562 L 775,562 L 772,565 L 771,565 L 769,567 L 768,567 L 766,569 L 765,569 L 764,570 L 763,570 L 762,571 L 761,571 L 760,572 L 759,572 L 758,573 L 756,573 L 755,574 L 753,574 L 752,575 L 750,575 L 749,576 L 746,576 L 745,577 L 739,577 L 738,578 L 723,578 L 722,577 L 717,577 L 716,576 L 714,576 L 713,575 L 711,575 L 710,574 L 708,574 L 707,573 L 706,573 L 704,571 L 703,571 L 702,570 L 701,570 L 691,560 L 691,559 L 689,557 L 689,556 L 688,555 L 688,554 L 687,553 L 687,552 L 686,551 L 686,548 L 685,547 L 685,544 L 684,543 L 684,519 L 685,518 L 685,513 L 686,512 L 686,508 L 687,507 L 687,504 L 688,503 L 688,501 L 689,500 L 689,498 L 690,497 L 690,495 L 691,494 L 691,492 L 692,491 L 692,490 L 693,489 L 693,488 L 694,487 L 694,485 L 695,484 L 695,483 L 696,482 L 696,481 L 698,479 L 698,478 L 699,477 L 699,476 L 701,474 L 701,473 L 703,471 L 703,470 L 707,466 L 707,465 L 718,454 L 719,454 L 722,451 L 723,451 L 725,449 L 726,449 L 728,447 L 729,447 L 730,446 L 731,446 L 732,445 L 733,445 L 734,444 L 736,444 L 737,443 L 738,443 L 739,442 L 741,442 L 742,441 L 745,441 L 746,440 Z" fill="black" fill-rule="evenodd" /><path d="M 303,381 L 302,382 L 292,382 L 291,383 L 285,383 L 284,384 L 280,384 L 279,385 L 275,385 L 274,386 L 271,386 L 270,387 L 267,387 L 266,388 L 264,388 L 263,389 L 261,389 L 260,390 L 258,390 L 257,391 L 255,391 L 254,392 L 252,392 L 251,393 L 250,393 L 249,394 L 248,394 L 247,395 L 245,395 L 244,396 L 243,396 L 242,397 L 241,397 L 240,398 L 239,398 L 237,400 L 236,400 L 235,401 L 234,401 L 233,402 L 232,402 L 230,404 L 229,404 L 228,405 L 227,405 L 225,407 L 224,407 L 221,410 L 220,410 L 217,413 L 216,413 L 212,417 L 211,417 L 194,434 L 194,435 L 190,439 L 190,440 L 187,443 L 187,444 L 185,446 L 185,447 L 183,449 L 183,450 L 181,452 L 181,453 L 180,454 L 180,455 L 178,457 L 178,458 L 177,459 L 177,460 L 176,461 L 176,462 L 175,463 L 175,464 L 174,465 L 174,466 L 173,467 L 173,468 L 172,469 L 172,470 L 171,471 L 171,472 L 170,473 L 170,474 L 169,475 L 169,477 L 168,478 L 168,479 L 167,480 L 167,482 L 166,483 L 166,485 L 165,486 L 165,488 L 164,489 L 164,491 L 163,492 L 163,494 L 162,495 L 162,498 L 161,499 L 161,502 L 160,503 L 160,507 L 159,508 L 159,512 L 158,513 L 158,519 L 157,520 L 157,551 L 158,552 L 158,558 L 159,559 L 159,563 L 160,564 L 160,567 L 161,568 L 161,570 L 162,571 L 162,573 L 163,574 L 163,576 L 164,577 L 164,578 L 165,579 L 165,580 L 166,581 L 166,583 L 168,585 L 168,586 L 169,587 L 169,588 L 170,589 L 170,590 L 172,592 L 172,593 L 174,595 L 174,596 L 177,599 L 177,600 L 189,612 L 190,612 L 193,615 L 194,615 L 196,617 L 197,617 L 199,619 L 200,619 L 201,620 L 202,620 L 203,621 L 204,621 L 206,623 L 207,623 L 208,624 L 210,624 L 211,625 L 212,625 L 213,626 L 214,626 L 215,627 L 217,627 L 218,628 L 220,628 L 221,629 L 223,629 L 224,630 L 226,630 L 227,631 L 230,631 L 231,632 L 234,632 L 235,633 L 240,633 L 241,634 L 270,634 L 271,633 L 276,633 L 277,632 L 281,632 L 282,631 L 285,631 L 286,630 L 289,630 L 290,629 L 292,629 L 293,628 L 294,628 L 295,627 L 297,627 L 298,626 L 299,626 L 300,625 L 302,625 L 303,624 L 304,624 L 305,623 L 306,623 L 308,621 L 309,621 L 310,620 L 311,620 L 312,619 L 313,619 L 315,617 L 316,617 L 318,615 L 319,615 L 321,613 L 322,613 L 326,609 L 327,609 L 334,602 L 335,603 L 335,605 L 334,606 L 334,608 L 333,609 L 333,612 L 332,613 L 332,615 L 331,616 L 331,619 L 330,620 L 330,622 L 329,623 L 329,626 L 328,627 L 328,629 L 327,630 L 327,631 L 379,631 L 380,630 L 380,628 L 381,627 L 381,625 L 382,624 L 382,621 L 383,620 L 383,617 L 384,616 L 384,614 L 385,613 L 385,610 L 386,609 L 386,606 L 387,605 L 387,603 L 388,602 L 388,599 L 389,598 L 389,595 L 390,594 L 390,592 L 391,591 L 391,588 L 392,587 L 392,585 L 393,584 L 393,581 L 394,580 L 394,578 L 395,577 L 395,574 L 396,573 L 396,570 L 397,569 L 397,567 L 398,566 L 398,563 L 399,562 L 399,559 L 400,558 L 400,556 L 401,555 L 401,552 L 402,551 L 402,549 L 403,548 L 403,545 L 404,544 L 404,541 L 405,540 L 405,538 L 406,537 L 406,534 L 407,533 L 407,530 L 408,529 L 408,527 L 409,526 L 409,523 L 410,522 L 410,520 L 411,519 L 411,516 L 412,515 L 412,513 L 413,512 L 413,509 L 414,508 L 414,505 L 415,504 L 415,502 L 416,501 L 416,498 L 417,497 L 417,494 L 418,493 L 418,490 L 417,491 L 299,491 L 299,492 L 298,493 L 298,494 L 297,495 L 297,497 L 296,498 L 296,499 L 295,500 L 295,501 L 294,502 L 294,503 L 293,504 L 293,505 L 292,506 L 292,507 L 291,508 L 291,509 L 290,510 L 290,511 L 289,512 L 289,513 L 288,514 L 288,515 L 287,516 L 287,517 L 286,518 L 286,519 L 285,520 L 285,521 L 284,522 L 284,523 L 283,524 L 283,525 L 282,526 L 282,527 L 281,528 L 281,529 L 280,530 L 280,531 L 279,532 L 279,533 L 278,534 L 278,535 L 277,536 L 277,537 L 276,538 L 276,540 L 275,541 L 275,542 L 274,543 L 338,543 L 339,544 L 338,545 L 338,546 L 335,549 L 335,550 L 326,559 L 325,559 L 321,563 L 320,563 L 318,565 L 317,565 L 315,567 L 314,567 L 313,568 L 312,568 L 311,569 L 310,569 L 309,570 L 308,570 L 307,571 L 306,571 L 305,572 L 304,572 L 303,573 L 301,573 L 300,574 L 298,574 L 297,575 L 294,575 L 293,576 L 289,576 L 288,577 L 282,577 L 281,578 L 268,578 L 267,577 L 263,577 L 262,576 L 259,576 L 258,575 L 256,575 L 255,574 L 254,574 L 253,573 L 252,573 L 251,572 L 250,572 L 249,571 L 248,571 L 246,569 L 245,569 L 235,559 L 235,558 L 233,556 L 233,555 L 232,554 L 232,553 L 231,552 L 231,550 L 230,549 L 230,547 L 229,546 L 229,543 L 228,542 L 228,535 L 227,534 L 227,525 L 228,524 L 228,516 L 229,515 L 229,511 L 230,510 L 230,507 L 231,506 L 231,503 L 232,502 L 232,500 L 233,499 L 233,497 L 234,496 L 234,495 L 235,494 L 235,492 L 236,491 L 236,490 L 237,489 L 237,488 L 238,487 L 238,486 L 239,485 L 239,484 L 240,483 L 240,482 L 241,481 L 241,480 L 243,478 L 243,477 L 245,475 L 245,474 L 247,472 L 247,471 L 252,466 L 252,465 L 259,458 L 260,458 L 265,453 L 266,453 L 268,451 L 269,451 L 271,449 L 272,449 L 273,448 L 274,448 L 275,447 L 276,447 L 277,446 L 278,446 L 279,445 L 281,445 L 282,444 L 283,444 L 284,443 L 286,443 L 287,442 L 290,442 L 291,441 L 295,441 L 296,440 L 303,440 L 304,439 L 317,439 L 318,440 L 325,440 L 326,441 L 329,441 L 330,442 L 332,442 L 333,443 L 334,443 L 335,444 L 336,444 L 337,445 L 338,445 L 339,446 L 340,446 L 346,452 L 346,453 L 348,455 L 348,456 L 349,457 L 349,458 L 350,459 L 350,462 L 351,463 L 351,464 L 422,464 L 422,459 L 421,458 L 421,453 L 420,452 L 420,448 L 419,447 L 419,443 L 418,442 L 418,440 L 417,439 L 417,437 L 416,436 L 416,435 L 415,434 L 415,432 L 414,431 L 414,430 L 413,429 L 413,428 L 412,427 L 412,426 L 411,425 L 411,424 L 409,422 L 409,421 L 407,419 L 407,418 L 405,416 L 405,415 L 392,402 L 391,402 L 388,399 L 387,399 L 385,397 L 384,397 L 382,395 L 381,395 L 380,394 L 379,394 L 378,393 L 377,393 L 376,392 L 375,392 L 374,391 L 372,391 L 371,390 L 370,390 L 369,389 L 367,389 L 366,388 L 364,388 L 363,387 L 361,387 L 360,386 L 358,386 L 357,385 L 353,385 L 352,384 L 348,384 L 347,383 L 341,383 L 340,382 L 332,382 L 331,381 Z" fill="black" fill-rule="evenodd" /></svg>